<svg width="28" height="28" viewBox="0 0 28 28" fill="none" xmlns="http://www.w3.org/2000/svg">
<rect width="28" height="28" rx="13" fill="white"/>
<rect x="0.5" y="0.5" width="27" height="27" rx="12.5" stroke="#93A0AB" stroke-opacity="0.48"/>
<path d="M12.2072 17.078L9.3713 13.9607C9.29715 13.8782 9.20883 13.8127 9.11147 13.768C9.01411 13.7232 8.90964 13.7002 8.80413 13.7002C8.69861 13.7002 8.59415 13.7232 8.49679 13.768C8.39943 13.8127 8.31111 13.8782 8.23695 13.9607C8.16189 14.0422 8.10229 14.1393 8.06162 14.2463C8.02094 14.3533 8 14.4682 8 14.5842C8 14.7001 8.02094 14.815 8.06162 14.922C8.10229 15.029 8.16189 15.1261 8.23695 15.2076L11.6319 18.9395C11.9479 19.2868 12.4584 19.2868 12.7744 18.9395L21.363 9.50739C21.4381 9.42587 21.4977 9.32879 21.5384 9.22177C21.5791 9.11475 21.6 8.99991 21.6 8.88393C21.6 8.76794 21.5791 8.65311 21.5384 8.54609C21.4977 8.43906 21.4381 8.34198 21.363 8.26046C21.2889 8.17795 21.2006 8.11244 21.1032 8.06773C21.0059 8.02302 20.9014 8 20.7959 8C20.6904 8 20.5859 8.02302 20.4885 8.06773C20.3912 8.11244 20.3029 8.17795 20.2287 8.26046L12.2072 17.078Z" fill="#93A0AB" fill-opacity="0.48"/>
<path d="M20.7959 7.84961C20.9234 7.84961 21.0493 7.87806 21.166 7.93164C21.2821 7.98501 21.3865 8.06255 21.4736 8.15918L21.5361 8.23438C21.5951 8.31262 21.6433 8.40003 21.6787 8.49316C21.7258 8.61729 21.75 8.75001 21.75 8.88379C21.75 9.01774 21.7259 9.15112 21.6787 9.27539C21.6315 9.39957 21.562 9.5134 21.4736 9.60938L21.4727 9.6084L12.8857 19.04C12.5102 19.4528 11.896 19.4528 11.5205 19.04L8.12598 15.3086V15.3076C8.03816 15.2119 7.96891 15.0992 7.92188 14.9756C7.87465 14.8513 7.84961 14.7179 7.84961 14.584C7.84963 14.4501 7.8747 14.3175 7.92188 14.1934C7.96886 14.0697 8.03721 13.9561 8.125 13.8604C8.21235 13.7632 8.31794 13.6854 8.43457 13.6318C8.55106 13.5784 8.67648 13.5499 8.80371 13.5498C8.93113 13.5498 9.05718 13.5783 9.17383 13.6318C9.28995 13.6852 9.39433 13.7628 9.48145 13.8594L12.207 16.8555L20.1182 8.15918C20.2053 8.06255 20.3097 7.985 20.4258 7.93164C20.5425 7.87805 20.6684 7.84961 20.7959 7.84961Z" stroke="#93A0AB" stroke-opacity="0.48" stroke-width="0.3"/>
</svg>
