<svg width="20" height="18" viewBox="0 0 20 18" fill="none" xmlns="http://www.w3.org/2000/svg">
<path d="M3.78711 16C3.37461 16 3.02161 15.8558 2.72811 15.5675C2.43461 15.2791 2.28761 14.9321 2.28711 14.5263V6.42105C2.28711 6.01579 2.43411 5.66898 2.72811 5.38063C3.02211 5.09228 3.37511 4.94786 3.78711 4.94737H6.78711V3.47368C6.78711 3.06842 6.93411 2.72161 7.22811 2.43326C7.52211 2.14491 7.87511 2.00049 8.28711 2H11.2871C11.6996 2 12.0529 2.14442 12.3469 2.43326C12.6409 2.72211 12.7876 3.06891 12.7871 3.47368V4.94737H15.7871C16.1996 4.94737 16.5529 5.09179 16.8469 5.38063C17.1409 5.66947 17.2876 6.01628 17.2871 6.42105V14.5263C17.2871 14.9316 17.1404 15.2786 16.8469 15.5675C16.5534 15.8563 16.2001 16.0005 15.7871 16H3.78711ZM8.28711 4.94737H11.2871V3.47368H8.28711V4.94737Z" fill="#1A2255"/>
</svg>
