<svg width="19" height="19" viewBox="0 0 19 19" fill="none" xmlns="http://www.w3.org/2000/svg">
<rect x="0.25" y="0.25" width="18.5" height="18.5" rx="4.75" fill="white" stroke="#93A0AB" stroke-width="0.5"/>
<path d="M7.44596 12.8174L14.5708 5.26726C14.739 5.08909 14.9351 5 15.1593 5C15.3835 5 15.5797 5.08909 15.7478 5.26726C15.9159 5.44543 16 5.65716 16 5.90245C16 6.14774 15.9159 6.35917 15.7478 6.53675L8.03445 14.7327C7.86631 14.9109 7.67015 15 7.44596 15C7.22178 15 7.02562 14.9109 6.85748 14.7327L3.24251 10.902C3.07437 10.7238 2.99366 10.5124 3.00039 10.2677C3.00711 10.023 3.09483 9.81128 3.26352 9.63252C3.43222 9.45375 3.63203 9.36466 3.86294 9.36526C4.09385 9.36585 4.29337 9.45494 4.46151 9.63252L7.44596 12.8174Z" fill="#233AD1"/>
</svg>
