<svg width="15" height="15" viewBox="0 0 15 15" fill="none" xmlns="http://www.w3.org/2000/svg">
<path d="M7.30078 7.85047L9.82545 10.3751C9.89804 10.4477 9.98723 10.4866 10.093 10.4918C10.1988 10.497 10.2932 10.4581 10.3761 10.3751C10.4591 10.2922 10.5006 10.2004 10.5006 10.0998C10.5006 9.99921 10.4591 9.90743 10.3761 9.82447L7.85145 7.2998L10.3761 4.77514C10.4487 4.70254 10.4876 4.61336 10.4928 4.50758C10.498 4.4018 10.4591 4.30743 10.3761 4.22447C10.2932 4.14151 10.2014 4.10003 10.1008 4.10003C10.0002 4.10003 9.90841 4.14151 9.82545 4.22447L7.30078 6.74914L4.77611 4.22447C4.70352 4.15188 4.61434 4.11299 4.50856 4.1078C4.40278 4.10262 4.30841 4.14151 4.22545 4.22447C4.14248 4.30743 4.101 4.39921 4.101 4.4998C4.101 4.6004 4.14248 4.69217 4.22545 4.77514L6.75011 7.2998L4.22545 9.82447C4.15285 9.89706 4.11397 9.98651 4.10878 10.0928C4.1036 10.1981 4.14248 10.2922 4.22545 10.3751C4.30841 10.4581 4.40019 10.4996 4.50078 10.4996C4.60137 10.4996 4.69315 10.4581 4.77611 10.3751L7.30078 7.85047ZM7.30311 14.2998C6.33504 14.2998 5.42504 14.1162 4.57311 13.7491C3.72119 13.3815 2.97997 12.8827 2.34945 12.2527C1.71893 11.6227 1.21986 10.8822 0.852226 10.0314C0.484596 9.18047 0.300781 8.27073 0.300781 7.30214C0.300781 6.33354 0.484596 5.42354 0.852226 4.57214C1.21934 3.72021 1.71737 2.97899 2.34634 2.34847C2.9753 1.71795 3.716 1.21888 4.56845 0.851249C5.42089 0.48362 6.33089 0.299805 7.29845 0.299805C8.266 0.299805 9.176 0.48362 10.0284 0.851249C10.8804 1.21836 11.6216 1.71666 12.2521 2.34614C12.8826 2.97562 13.3817 3.71632 13.7493 4.56825C14.117 5.42017 14.3008 6.32991 14.3008 7.29747C14.3008 8.26503 14.1172 9.17503 13.7501 10.0275C13.383 10.8799 12.8842 11.6211 12.2537 12.2511C11.6232 12.8811 10.8827 13.3802 10.0323 13.7484C9.18197 14.1165 8.27223 14.3003 7.30311 14.2998ZM7.30078 13.522C9.03782 13.522 10.5091 12.9192 11.7147 11.7137C12.9202 10.5081 13.523 9.03684 13.523 7.2998C13.523 5.56277 12.9202 4.09147 11.7147 2.88592C10.5091 1.68036 9.03782 1.07758 7.30078 1.07758C5.56374 1.07758 4.09245 1.68036 2.88689 2.88592C1.68134 4.09147 1.07856 5.56277 1.07856 7.2998C1.07856 9.03684 1.68134 10.5081 2.88689 11.7137C4.09245 12.9192 5.56374 13.522 7.30078 13.522Z" fill="#1A2255" stroke="#1A2255" stroke-width="0.6"/>
</svg>
