<svg width="17" height="15" viewBox="0 0 17 15" fill="none" xmlns="http://www.w3.org/2000/svg">
<path d="M8.36864 4.67532L10.8182 7.13766V7.01299C10.8182 6.393 10.5739 5.79841 10.1392 5.36001C9.70446 4.92161 9.11482 4.67532 8.5 4.67532H8.36864ZM5.04591 5.2987L6.24364 6.50649C6.205 6.67013 6.18182 6.83377 6.18182 7.01299C6.18182 7.63297 6.42605 8.22757 6.8608 8.66596C7.29554 9.10436 7.88518 9.35065 8.5 9.35065C8.67 9.35065 8.84 9.32727 9.00227 9.28831L10.2 10.4961C9.68227 10.7532 9.11045 10.9091 8.5 10.9091C7.4753 10.9091 6.49257 10.4986 5.768 9.76795C5.04342 9.03729 4.63636 8.0463 4.63636 7.01299C4.63636 6.3974 4.79091 5.82078 5.04591 5.2987ZM0.772727 0.98961L2.53455 2.76623L2.88227 3.11688C1.60727 4.12987 0.602727 5.45455 0 7.01299C1.33682 10.4338 4.63636 12.8571 8.5 12.8571C9.69773 12.8571 10.8414 12.6234 11.8845 12.2026L12.2168 12.5299L14.4732 14.8052L15.4545 13.8156L1.75409 0M8.5 3.11688C9.5247 3.11688 10.5074 3.52736 11.232 4.25803C11.9566 4.98869 12.3636 5.97968 12.3636 7.01299C12.3636 7.51169 12.2632 7.9948 12.0855 8.43117L14.3495 10.7143C15.5086 9.74026 16.4359 8.46234 17 7.01299C15.6632 3.59221 12.3636 1.16883 8.5 1.16883C7.41818 1.16883 6.38273 1.36364 5.40909 1.71429L7.08591 3.38961C7.52636 3.21818 7.99773 3.11688 8.5 3.11688Z" fill="#93A0AB" fill-opacity="0.48"/>
</svg>
