<svg width="194" height="65" viewBox="0 0 194 65" fill="none" xmlns="http://www.w3.org/2000/svg">
<path d="M5.25 23.1H2V15H19.3V23.1H16.05V28.25H27.65V23.1H24.4V15H41.7V23.1H38.45V41.9H41.7V50H24.4V41.9H27.65V36.35H16.05V41.9H19.3V50H2V41.9H5.25V23.1ZM60.7012 39.9C60.7012 35.75 45.9012 38.55 45.9012 24.85C45.9012 19.35 50.2012 14.25 58.5512 14.25C63.7012 14.25 70.0012 15.75 70.0012 21.85C70.0012 24.8 68.0012 26.8 65.0012 26.8C62.7012 26.8 60.8012 25.4 60.3012 22.85C59.6512 22.55 58.8012 22.25 58.0512 22.25C57.0012 22.25 56.1012 22.8 56.1012 24.5C56.1012 28.3 70.9512 25.9 70.9512 39.4C70.9512 45.2 67.1012 50.75 57.4012 50.75C52.2512 50.75 45.4512 49.25 45.4512 43.15C45.4512 40.2 47.4512 38.2 50.4512 38.2C52.7512 38.2 54.6512 39.6 55.1512 42.15C55.7012 42.55 56.8512 42.7 57.4512 42.7C58.9512 42.7 60.7012 41.7 60.7012 39.9ZM77.9551 23.1H74.7051V15H100.905V26.6H93.1551V23.1H88.7551V28.25H95.2551V36.45H88.7551V41.9H93.1551V38.4H100.905V50H74.7051V41.9H77.9551V23.1Z" fill="#233AD1"/>
<path d="M106.726 21.056H108.486V17.272C108.486 15.028 109.762 14.192 111.236 14.192C111.852 14.192 112.842 14.302 113.744 14.808L113.304 16.238C112.512 15.776 111.94 15.688 111.434 15.688C110.664 15.688 110.092 16.15 110.092 17.25V21.056H113.062V22.552H110.092V29.614H111.918V31H106.726V29.614H108.486V22.53H106.726V21.056ZM119.182 22.266C117.136 22.266 115.64 23.96 115.64 26.028C115.64 28.074 117.136 29.768 119.182 29.768C121.25 29.768 122.68 28.074 122.68 26.028C122.68 23.96 121.25 22.266 119.182 22.266ZM114.034 26.028C114.034 23.124 116.278 20.77 119.182 20.77C122.086 20.77 124.286 23.124 124.286 26.028C124.286 28.91 122.086 31.264 119.182 31.264C116.278 31.264 114.034 28.91 114.034 26.028ZM131.021 22.332C129.877 22.442 129.151 23.41 128.799 24.466V29.614H130.405V31H125.807V29.614H127.193V22.442H125.807V21.056H128.799V22.332C129.679 21.166 130.691 20.77 131.791 20.77C132.451 20.77 133.111 21.232 133.111 21.892C133.111 22.552 132.671 23.014 132.011 23.014C131.571 23.014 131.197 22.684 131.021 22.332ZM133.972 26.028C133.972 23.036 136.216 20.77 139.208 20.77C142.156 20.77 144.136 22.552 144.136 25.918C144.136 26.16 144.114 26.424 144.114 26.666H135.578C135.974 28.514 137.47 29.746 139.34 29.746C140.726 29.746 141.914 29.042 142.816 27.92L143.894 28.888C142.794 30.45 141.166 31.264 139.318 31.264C136.326 31.264 133.972 29.02 133.972 26.028ZM139.208 22.178C137.294 22.178 135.864 23.432 135.556 25.258H142.618C142.376 23.41 141.078 22.178 139.208 22.178ZM149.526 31.33C147.502 31.33 145.984 30.714 145.984 28.998C145.984 28.448 146.424 27.986 147.062 27.986C147.744 27.986 148.184 28.448 148.184 28.998C148.184 29.152 148.118 29.394 148.03 29.526C148.382 29.768 148.954 29.9 149.526 29.9C150.89 29.9 151.858 29.108 151.858 28.14C151.858 25.874 146.182 27.524 146.182 23.564C146.182 21.826 147.744 20.77 149.812 20.77C151.792 20.77 153.266 21.386 153.266 23.102C153.266 23.674 152.826 24.114 152.21 24.114C151.55 24.114 151.11 23.674 151.11 23.102C151.11 22.948 151.176 22.75 151.264 22.618C150.912 22.376 150.34 22.244 149.768 22.244C148.756 22.244 147.7 22.64 147.7 23.586C147.7 25.984 153.398 24.18 153.398 28.162C153.398 30.12 151.858 31.33 149.526 31.33ZM155.09 31V29.614H156.476V22.442H155.09V21.056H158.082V29.614H159.468V31H155.09ZM157.29 18.174C156.718 18.174 156.212 17.69 156.212 17.118C156.212 16.546 156.718 16.062 157.29 16.062C157.84 16.062 158.346 16.546 158.346 17.118C158.346 17.69 157.84 18.174 157.29 18.174ZM161.284 26.028C161.284 23.014 162.846 20.748 165.926 20.748C167.356 20.748 168.544 21.43 169.424 22.398V21.056H172.328V22.442H170.942V31.242C170.942 34.718 168.654 36.28 165.948 36.28C164.32 36.28 163.286 35.708 161.658 34.564L162.516 33.266C163.902 34.3 164.672 34.784 165.948 34.784C167.796 34.784 169.336 33.75 169.336 31.374V29.79C168.478 30.714 167.334 31.286 165.926 31.286C162.846 31.286 161.284 29.042 161.284 26.028ZM162.89 26.028C162.89 28.184 163.924 29.724 166.058 29.724C167.554 29.724 168.676 28.888 169.336 27.656V24.4C168.676 23.168 167.554 22.332 166.058 22.332C163.924 22.332 162.89 23.872 162.89 26.028ZM173.783 31V29.614H175.169V15.886H173.783V14.5H176.775V22.486C177.699 21.584 179.085 20.77 180.537 20.77C182.671 20.77 184.013 21.848 184.013 24.796V29.614H185.399V31H181.021V29.614H182.407V25.17C182.407 22.794 181.351 22.376 180.229 22.376C178.887 22.376 177.567 23.454 176.775 24.422V29.614H178.161V31H173.783ZM189.863 22.552V28.052C189.863 29.218 190.061 29.768 190.809 29.768C191.315 29.768 191.975 29.592 192.855 29.174V30.736C192.107 31.066 191.249 31.264 190.523 31.264C188.609 31.264 188.257 29.9 188.257 27.458V22.53H186.497V21.056H188.257V17.668H189.863V21.056H192.833V22.552H189.863Z" fill="#233AD1"/>
<path d="M106.88 45.028C106.88 42.124 109.146 39.77 112.05 39.77C114.03 39.77 116.12 40.606 116.12 42.322C116.12 43.092 115.614 43.598 114.866 43.598C114.074 43.598 113.568 43.092 113.568 42.322C113.568 42.124 113.634 41.904 113.722 41.75C113.282 41.464 112.6 41.266 112.05 41.266C109.982 41.266 108.486 42.96 108.486 45.028C108.486 47.074 109.982 48.768 112.05 48.768C113.304 48.768 114.404 48.064 115.108 47.03L116.362 47.888C115.372 49.34 113.832 50.264 112.05 50.264C109.146 50.264 106.88 47.91 106.88 45.028ZM117.622 45.028C117.622 42.036 119.866 39.77 122.858 39.77C125.806 39.77 127.786 41.552 127.786 44.918C127.786 45.16 127.764 45.424 127.764 45.666H119.228C119.624 47.514 121.12 48.746 122.99 48.746C124.376 48.746 125.564 48.042 126.466 46.92L127.544 47.888C126.444 49.45 124.816 50.264 122.968 50.264C119.976 50.264 117.622 48.02 117.622 45.028ZM122.858 41.178C120.944 41.178 119.514 42.432 119.206 44.258H126.268C126.026 42.41 124.728 41.178 122.858 41.178ZM129.353 50V48.614H130.739V41.442H129.353V40.056H132.345V41.662C133.269 40.76 134.655 39.77 136.107 39.77C138.241 39.77 139.583 40.848 139.583 43.796V48.614H140.969V50H136.591V48.614H137.977V44.17C137.977 41.794 136.921 41.376 135.799 41.376C134.457 41.376 133.137 42.652 132.345 43.598V48.614H133.731V50H129.353ZM145.434 41.552V47.052C145.434 48.218 145.632 48.768 146.38 48.768C146.886 48.768 147.546 48.592 148.426 48.174V49.736C147.678 50.066 146.82 50.264 146.094 50.264C144.18 50.264 143.828 48.9 143.828 46.458V41.53H142.068V40.056H143.828V36.668H145.434V40.056H148.404V41.552H145.434ZM155.019 41.332C153.875 41.442 153.149 42.41 152.797 43.466V48.614H154.403V50H149.805V48.614H151.191V41.442H149.805V40.056H152.797V41.332C153.677 40.166 154.689 39.77 155.789 39.77C156.449 39.77 157.109 40.232 157.109 40.892C157.109 41.552 156.669 42.014 156.009 42.014C155.569 42.014 155.195 41.684 155.019 41.332ZM157.97 45.028C157.97 42.036 160.214 39.77 163.206 39.77C166.154 39.77 168.134 41.552 168.134 44.918C168.134 45.16 168.112 45.424 168.112 45.666H159.576C159.972 47.514 161.468 48.746 163.338 48.746C164.724 48.746 165.912 48.042 166.814 46.92L167.892 47.888C166.792 49.45 165.164 50.264 163.316 50.264C160.324 50.264 157.97 48.02 157.97 45.028ZM163.206 41.178C161.292 41.178 159.862 42.432 159.554 44.258H166.616C166.374 42.41 165.076 41.178 163.206 41.178Z" fill="#233AD1"/>
</svg>
