<svg width="17" height="12" viewBox="0 0 17 12" fill="none" xmlns="http://www.w3.org/2000/svg">
<path d="M8.5 9.85714C7.74349 9.85714 7.00396 9.63093 6.37494 9.2071C5.74593 8.78327 5.25567 8.18087 4.96616 7.47606C4.67666 6.77126 4.60091 5.99572 4.7485 5.24751C4.89608 4.4993 5.26038 3.81202 5.79532 3.27259C6.33025 2.73316 7.0118 2.3658 7.75378 2.21697C8.49576 2.06814 9.26484 2.14453 9.96376 2.43646C10.6627 2.7284 11.2601 3.22278 11.6804 3.85709C12.1007 4.49139 12.325 5.23713 12.325 6C12.325 7.02298 11.922 8.00406 11.2047 8.72741C10.4874 9.45077 9.51445 9.85714 8.5 9.85714ZM8.5 0C2.55 0 0 6 0 6C0 6 2.55 12 8.5 12C14.45 12 17 6 17 6C17 6 14.45 0 8.5 0Z" fill="#93A0AB" fill-opacity="0.48"/>
<path d="M8.5 8.14314C9.67361 8.14314 10.625 7.18375 10.625 6.00028C10.625 4.81681 9.67361 3.85742 8.5 3.85742C7.32639 3.85742 6.375 4.81681 6.375 6.00028C6.375 7.18375 7.32639 8.14314 8.5 8.14314Z" fill="#93A0AB" fill-opacity="0.48"/>
</svg>
